<?xml version="1.0" standalone="no"?>
<!DOCTYPE svg PUBLIC "-//W3C//DTD SVG 20010904//EN"
 "http://www.w3.org/TR/2001/REC-SVG-20010904/DTD/svg10.dtd">
<svg version="1.0" xmlns="http://www.w3.org/2000/svg"
 width="700.000000pt" height="700.000000pt" viewBox="0 0 700.000000 700.000000"
 preserveAspectRatio="xMidYMid meet">
<metadata>
Created by potrace 1.14, written by Peter Selinger 2001-2017
</metadata>
<g transform="translate(0.000000,700.000000) scale(0.100000,-0.100000)"
fill="#000000" stroke="none">
<path d="M3340 5760 c-50 -14 -96 -44 -161 -104 -69 -65 -96 -80 -199 -117
-35 -13 -87 -41 -115 -64 -57 -46 -196 -131 -208 -127 -5 1 -6 -1 -3 -6 3 -5
-6 -25 -19 -44 -13 -20 -27 -47 -30 -61 -4 -14 -13 -28 -21 -31 -37 -14 -268
-183 -317 -232 -67 -66 -123 -170 -142 -263 -13 -60 -13 -81 -1 -164 19 -124
34 -175 63 -210 13 -16 23 -41 23 -55 0 -15 10 -63 21 -107 11 -44 20 -104 18
-135 -5 -122 -3 -148 15 -230 27 -123 96 -337 120 -372 32 -47 69 -70 126 -79
29 -4 54 -10 56 -11 1 -2 10 -57 20 -123 14 -101 15 -167 10 -410 -3 -159 -9
-319 -12 -355 l-6 -65 -62 1 c-33 0 -81 -4 -105 -8 -26 -5 -49 -4 -56 2 -6 5
-63 12 -127 15 -114 5 -119 5 -225 -31 -125 -42 -155 -57 -203 -102 -19 -19
-55 -43 -80 -53 -51 -23 -90 -56 -90 -76 0 -7 -4 -13 -9 -13 -5 0 -12 -8 -16
-19 -9 -29 -76 -91 -99 -92 -53 -1 -112 -42 -244 -167 -36 -34 -63 -49 -105
-56 -47 -9 -87 -26 -87 -38 0 -5 5 -6 11 -3 6 4 26 4 45 1 25 -5 35 -13 40
-31 3 -14 11 -25 16 -25 7 0 8 -66 4 -202 -4 -112 -9 -248 -11 -304 -1 -55 -8
-141 -15 -190 -8 -56 -10 -130 -7 -199 11 -188 -2 -216 -89 -190 -84 24 -222
37 -414 37 -197 0 -245 8 -349 56 -54 24 -56 24 -105 8 -28 -8 -84 -18 -123
-22 l-73 -7 0 -343 0 -344 3329 0 3329 0 7 30 c5 25 -1 42 -40 100 -26 39 -51
85 -56 103 -8 32 -9 51 -6 200 l2 78 -45 43 c-25 23 -63 56 -86 72 -22 16 -79
65 -127 108 -73 67 -89 88 -103 130 -8 28 -19 60 -24 71 -123 276 -145 338
-154 434 -7 70 -25 141 -36 141 -5 0 -11 10 -14 22 -20 77 -217 211 -341 234
-20 3 -25 1 -19 -8 4 -7 -5 -2 -20 12 l-28 25 7 157 c4 86 5 172 1 191 -6 31
-11 35 -41 39 -18 2 -33 1 -32 -2 3 -11 -133 -111 -151 -112 -9 0 -38 3 -64 7
-26 4 -59 3 -76 -3 -24 -8 -41 -5 -98 19 -132 56 -357 111 -385 94 -5 -4 -25
7 -46 22 -34 26 -44 28 -137 30 -95 2 -106 5 -196 45 -52 24 -98 47 -101 51
-3 5 -10 8 -15 8 -5 -1 -37 9 -72 20 -39 13 -75 19 -93 15 -44 -8 -27 9 36 38
86 39 218 178 322 338 15 24 30 45 33 48 10 8 28 62 39 115 17 81 68 291 101
414 16 63 30 134 30 158 0 41 2 43 28 43 31 0 117 52 126 76 3 8 9 13 14 10 4
-2 8 3 9 13 1 10 15 38 31 62 27 39 68 123 85 172 4 9 2 17 -4 17 -6 0 -7 5
-4 10 6 10 -166 100 -192 100 -18 0 -17 50 7 210 27 185 26 326 -5 500 -13 78
-24 145 -23 148 1 4 -8 40 -20 79 -22 72 -76 175 -116 223 -11 14 3 3 32 -25
57 -54 62 -54 31 2 -69 122 -197 260 -316 339 -34 23 -59 45 -55 49 4 4 3 6
-3 4 -12 -3 -25 2 -145 56 -52 23 -116 50 -142 59 -26 10 -66 30 -90 47 -78
53 -183 77 -358 82 -85 2 -166 1 -180 -3z m1483 -1855 c16 -4 25 -11 20 -16
-7 -7 -157 -29 -198 -29 -9 0 -9 78 0 107 3 8 27 1 77 -22 40 -18 86 -37 101
-40z m5 -151 c2 -1 -9 -30 -24 -64 -36 -80 -94 -132 -144 -128 l-35 3 -3 103
-3 103 103 -7 c57 -4 105 -8 106 -10z"/>
<path d="M772 3523 c-20 -18 -35 -47 -43 -78 -6 -28 -29 -91 -50 -141 -39 -90
-104 -299 -140 -445 -10 -42 -25 -94 -33 -115 -8 -22 -22 -68 -31 -104 -34
-138 -83 -278 -112 -317 -33 -46 -51 -53 -144 -58 -86 -5 -156 -29 -196 -67
l-23 -21 0 -459 c0 -394 2 -458 15 -458 8 0 55 35 104 77 82 72 92 84 122 156
25 57 38 77 52 77 10 0 52 -34 93 -75 40 -41 97 -86 126 -101 50 -25 54 -26
178 -19 l126 7 -4 52 c-11 139 78 326 156 326 17 0 20 9 25 75 4 43 15 91 26
113 22 43 83 103 126 125 17 8 73 60 126 114 84 85 104 112 147 200 48 98 78
146 192 308 46 66 100 198 100 247 0 10 -15 35 -33 54 -28 31 -42 37 -83 41
-57 6 -93 -9 -136 -54 -52 -55 -188 -223 -214 -265 -15 -23 -48 -65 -74 -93
-25 -27 -55 -62 -67 -77 -89 -118 -270 -314 -302 -328 -37 -15 -100 -5 -108
17 -13 32 26 206 61 274 39 74 61 152 71 249 8 77 27 165 60 275 13 44 26 100
30 125 4 25 19 90 35 146 24 84 27 108 19 145 -12 53 -59 89 -125 97 -36 4
-46 0 -72 -25z"/>
</g>
</svg>
